<?xml version="1.0" encoding="utf-8"?>
<!-- Generator: Adobe Illustrator 27.0.0, SVG Export Plug-In . SVG Version: 6.00 Build 0)  -->
<svg version="1.1" id="Layer_1" xmlns="http://www.w3.org/2000/svg" xmlns:xlink="http://www.w3.org/1999/xlink" x="0px" y="0px"
	 viewBox="0 0 1200 450" style="enable-background:new 0 0 1200 450;" xml:space="preserve">
<style type="text/css">
	.st0{fill:#FFFFFF;}
	.st1{fill:#FEC111;}
</style>
<g>
	<path class="st0" d="M167.76,198.49c0,62.3-31.9,101.1-82.68,101.1H52.64v71.7H0V97.01h85.07
		C135.85,97.01,167.76,135.8,167.76,198.49z M114.58,198.49c0-25.47-10.9-40.36-32.7-40.36H52.64v80.32h29.24
		C103.68,238.46,114.58,223.57,114.58,198.49z"/>
	<path class="st0" d="M282.8,318h-78.69l-14.62,53.29h-53.7l82.15-274.28h51.84l82.42,274.28h-54.77L282.8,318z M267.38,260.8
		l-23.93-87.77l-23.93,87.77H267.38z"/>
	<path class="st0" d="M444.72,298.42H416v72.88h-52.64V97.01h85.07c50.78,0,82.68,38.79,82.68,101.48
		c0,40.36-13.29,70.14-36.42,86.6l40.14,86.2h-56.36L444.72,298.42z M445.25,158.14H416v80.32h29.25c21.8,0,32.7-14.89,32.7-39.97
		C477.95,173.03,467.05,158.14,445.25,158.14z"/>
	<path class="st0" d="M620.79,271.77l-19.68,30.96v68.57H549V97.01h52.11v114.02l72.05-114.02h57.96l-76.03,121.47l80.02,152.81
		h-61.14L620.79,271.77z"/>
	<path class="st1" d="M886.68,161.27v60.34h82.15v59.95h-82.15v94.04h-52.64V101.32H980v59.95H886.68z"/>
	<path class="st1" d="M1104.4,277.25v98.35h-52.64v-99.52l-70.98-174.76h55.57l44.13,108.93l44.13-108.93h51.04L1104.4,277.25z"/>
	<path class="st1" d="M0,198.11c15.87-21.87,32.15-42.17,49.51-60.43c10.65-11.21,21.8-21.03,33.53-29.47
		c25.38-18.27,52.61-2.31,67.23,21.13c17.12,27.45,22.76,60,15.85,96.28c-6.96,36.52-23.48,58.95-47.6,68.28
		c-13.34,5.16-25.91,1.17-38.11-7.6c-16.06-11.55-30.77-26.42-44.7-43.01c-11.45-13.64-22.47-28.14-33.67-42.27
		C1.39,200.21,0.82,199.28,0,198.11z M130.09,198.42c0.06-20.68-10.62-37.29-24.07-37.41c-13.69-0.13-24.62,16.22-24.67,36.9
		c-0.05,20.68,10.64,37.29,24.08,37.41C119.15,235.44,130.03,219.16,130.09,198.42z"/>
	<rect x="749.02" y="101.32" class="st1" width="52.64" height="274.28"/>
</g>
</svg>
